<?xml version="1.0" encoding="utf-8"?>
<!-- Generator: Adobe Illustrator 25.0.1, SVG Export Plug-In . SVG Version: 6.00 Build 0)  -->
<svg version="1.1" id="Layer_1" xmlns="http://www.w3.org/2000/svg" xmlns:xlink="http://www.w3.org/1999/xlink" x="0px" y="0px"
	 viewBox="0 0 1920 1080" style="enable-background:new 0 0 1920 1080;" xml:space="preserve">
<style type="text/css">
	.st0{display:none;}
	.st1{fill:#e91515;stroke:#000000;stroke-width:3;stroke-miterlimit:10;}
	.st2{stroke:#000000;stroke-width:3;stroke-miterlimit:10;}
	.st3{fill:#4D4D4D;stroke:#000000;stroke-width:3;stroke-miterlimit:10;}
	.st4{fill:#808080;}
	.st5{fill:none;}
	.st6{font-family:'Consolas';}
	.st7{font-size:375.938px; fill: #fff;}
</style>
<g id="Layer_1_1_" class="st0">
		<!-- <image style="display:inline;overflow:visible;enable-background:new    ;" width="646" height="645" xlink:href="EABB8D0B.jpeg"  transform="matrix(1.6731 0 0 1.6731 419.9381 0.4184)">
	</image> -->
</g>
<g id="Layer_2_1_">
	<polygon class="st1" points="852,47 830,62 778,90 719,119 670,143 662,152 649,168 633,212 597,349 576,413 598,427 631,442 
		663,452 697,459 708.4,459 730,392 735,387 739,395 744,429 753,512 753,582 750,660 748,721 740,846 733,956 729,1014 748,1025 
		797,1035 852,1040.1 908,1044 960,1044 1041.3,1044 1096,1039 1152,1033 1181,1025 1204,1017 1196,921 1191,847 1187,775 1181,674 
		1180,561 1181,495 1187,424 1194,397 1197,384 1204,393.6 1223,458 1237,459 1257,456 1286,448 1312,439 1341,424 1357,414 
		1323,309 1299,212 1284,175 1270,152 1242,131 1197,111 1134,82 1076.1,47 1074,73 1061,108 1045,132 1020,151 974,175 924,154 
		896,135 873,110 859,81 	"/>
	<polygon class="st2" points="972,199 1022,173 1057,148 1082,115 1091,82 1095.9,59 1076.1,47 1074,73 1061,108 1045,132 1020,151 
		974,175 924,154 896,135 873,110 859,81 852,47 830,62 835,90 853.4,123 884,155 917,174 	"/>
	<path class="st3" d="M852,47c17,2.7,34,5.3,51,8c21,0.3,42,0.7,63,1c19.3-0.3,38.7-0.7,58-1c17.3-2.7,34.7-5.3,52.1-8l-2.1,26
		l-13,35l-16,24l-25,19l-46,24l-50-21l-28-19l-23-25l-14-29L852,47z"/>
	<path d="M584,395c8.5,5.2,16.9,10.5,25.3,15.7l8.7,4.3l31,12l27,8c12.3,2,24.7,4,37,6c-1.7,5.7-3.3,11.3-5,17c-3.7,0-7.3,0-11,0
		l-34-7l-32-10l-33-15c-6.7-4.7-13.3-9.3-20-14C580,406.3,582,400.7,584,395z"/>
	<path d="M1220,443c6.5-1.2,12.9-2.5,19.4-3.7l35.2-12l30.8-12.6l29.7-18.2c4-2.5,8-5,11.9-7.4c2.7,8.3,5.3,16.7,8,25
		c-5.3,3-10.7,6-16,9c-9.9,5.1-19.8,10.2-29.7,15.3l-25.2,8.9l-28.2,7.9l-19.4,3c-4.2-0.3-8.3-0.7-12.5-1
		C1222.7,452.3,1221.3,447.7,1220,443z"/>
	<path d="M733,988c7.7,5,15.3,10,23,15l31,9c11,1.7,22,3.3,33,5c17.7,2,35.3,4,53,6c19,0.3,38,0.7,57,1c21.7,0,43.3,0,65,0
		c22.9-2,45.9-4,68.8-6l45.2-6l45.7-6.4l26.6-12.4c5.9-3,11.8-6.1,17.7-9.1c1.3,10.7,2.7,21.3,4,32c-7.3,2.3-14.7,4.7-22,7
		c-9.7,3-19.3,6-29,9c-18.7,1.7-37.3,3.3-56,5c-18.3,1.7-36.7,3.3-55,5c-26.7,0-53.3,0-80,0c-17.3,0-34.7,0-52,0
		c-18.7-1.3-37.3-2.7-56-4c-18-1.7-36-3.3-54-5c-11-2-22-4-33-6c-5.3-1.3-10.7-2.7-16-4c-6.3-3-12.7-6-19-9
		C731.7,1005.3,732.3,996.7,733,988z"/>
	<path d="M660.9,153.3l3.9-4.5l1.9-2.1l1.3,9.3l3,21l8,23l5,13.9l4,17.1l4,23l5,17l6,17l4,11l5,15l5,12l4,13l4,12l3,11l3,17
		c1.3,2.7,2.7,5.3,4,8c-1.7-2.7-3.3-5.3-5-8c-1-5.7-2-11.3-3-17c-1-3.7-2-7.3-3-11c-1.3-4-2.7-8-4-12c-1.3-4.3-2.7-8.7-4-13
		c-1.7-4-3.3-8-5-12c-1.7-4.7-3.3-9.3-5-14c-1.3-3.7-2.7-7.3-4-11c-2-6-4-12-6-18c-1.7-5.7-3.3-11.3-5-17c-1.3-7.7-2.7-15.3-4-23
		c-1.3-5.7-2.7-11.3-4-17c-1.7-4.7-3.3-9.3-5-14c-2.7-7.3-5.3-14.7-8-22c-1.7-6.3-3.3-12.7-5-19
		C663.6,157.1,662.3,155.2,660.9,153.3z"/>
	<path class="st4" d="M671,446"/>
	<path d="M1270,154c-1.7,5-3.3,10-5,15c-2.3,9.7-4.7,19.3-7,29c-3,11-6,22-9,33c-2.3,9.7-4.7,19.3-7,29c-1.7,5.3-3.3,10.7-5,16
		c-2,4.7-4,9.3-6,14c-3.2,6.2-6.4,12.3-9.6,18.5l-3.2,7.4l-4.7,12.9l-7,15.3c-1.5,4.6-3,9.3-4.5,13.9c-1,4.7-2,9.3-3,14
		c-1,3-2,6-3,9c4-10.7,8-21.3,12-32c2.3-6.3,4.7-12.7,7-19c1.7-4,3.3-8,5-12c1.3-2.7,2.7-5.3,4-8c2.8-6.3,5.7-12.7,8.5-19l6.6-14.8
		l4.4-16.1l7.4-28.9l9.1-33.2l6.6-28.9C1267.8,164.1,1268.9,159.1,1270,154z"/>
</g>
<rect x="1064.9" y="405.9" class="st5" width="2" height="8.2"/>
<text transform="matrix(1 0 0 1 765.5269 736.7578)" id="jersey_number" class="st6 st7">31</text>
</svg>
